<svg width="20" height="20" viewBox="0 0 20 20" fill="none" xmlns="http://www.w3.org/2000/svg">
<path d="M19 7.98989C19 7.59595 18.9343 7.13636 18.9343 6.61111C18.8686 6.08586 18.8029 5.5606 18.7372 5.10101C18.6058 4.57576 18.4088 4.18182 18.0146 3.85354C17.6861 3.52525 17.2263 3.32828 16.7664 3.26262C15.2555 3.06565 13.0219 3 10 3C6.97811 3 4.67883 3.06565 3.23357 3.26262C2.77372 3.32828 2.31387 3.52525 1.9854 3.85354C1.65693 4.18182 1.39416 4.57576 1.26277 5.10101C1.13138 5.5606 1.0657 6.0202 1.0657 6.61111C1 7.13636 1 7.59595 1 7.98989C1 8.38383 1 8.84343 1 9.49999C1 10.1566 1 10.6818 1 11.0101C1 11.404 1.0657 11.8636 1.0657 12.3889C1.13139 12.9141 1.19708 13.4394 1.26277 13.899C1.39416 14.4242 1.59124 14.8182 1.9854 15.1465C2.31387 15.4747 2.77372 15.6717 3.23357 15.7374C4.74452 15.9343 6.97811 16 10 16C13.0219 16 15.3212 15.9343 16.7664 15.7374C17.2263 15.6717 17.6861 15.4747 18.0146 15.1465C18.3431 14.8182 18.6058 14.4242 18.7372 13.899C18.8686 13.4394 18.9343 12.9798 18.9343 12.3889C19 11.8636 19 11.404 19 11.0101C19 10.6162 19 10.1566 19 9.49999C19 8.84343 19 8.31817 19 7.98989ZM13.4818 10.0252L8.29198 13.2424C8.22628 13.3081 8.0949 13.3737 7.96351 13.3737C7.83212 13.3737 7.76643 13.3737 7.63504 13.3081C7.43796 13.1768 7.30657 12.9798 7.30657 12.7172V6.21717C7.30657 5.95454 7.43796 5.75758 7.63504 5.62626C7.83212 5.49495 8.0949 5.49495 8.29198 5.62626L13.4818 8.84343C13.6788 8.97474 13.8102 9.17171 13.8102 9.36868C13.8102 9.56565 13.6788 9.89394 13.4818 10.0252Z" fill="white"/>
</svg>
